<svg width="175" height="49" viewBox="0 0 175 49" fill="none" xmlns="http://www.w3.org/2000/svg">
<g clip-path="url(#clip0)">
<path d="M16.1761 15.7382C14.9908 15.7382 13.8752 15.7382 12.6899 15.7382C8.4367 23.5166 4.25321 31.1468 0 39.0733C1.32477 39.0733 2.37064 39.0733 3.62569 39.0733C7.18165 32.6284 10.7376 26.0353 14.5028 19.1459C20.011 29.2948 25.3798 39.1474 30.7486 49.0741C31.9339 49.0741 32.9798 49.0741 34.3743 49.0741C28.2385 37.7399 22.1725 26.702 16.1761 15.7382Z" fill="#1A1A1A"/>
<path d="M16.1064 15.6641C17.2918 15.7382 18.5468 15.8123 19.9413 15.9605C23.4973 22.4795 27.123 29.0726 30.7486 35.7397C31.8642 35.7397 32.9798 35.7397 34.3743 35.7397C30.0514 27.7391 25.7982 20.0348 21.545 12.2565C20.4991 12.3305 19.3835 12.4787 18.1285 12.5528C17.5009 13.5158 16.8734 14.627 16.1064 15.6641C16.1762 15.7382 16.1064 15.6641 16.1064 15.6641Z" fill="#1A1A1A"/>
<path d="M21.5449 12.2565C22.7302 12.4046 23.9853 12.4787 25.4495 12.6269C28.3779 17.9606 31.3761 23.5166 34.3743 28.9985C35.5596 28.9985 36.6055 28.9985 38 28.9985C34.3045 22.2572 30.7486 15.7382 27.1229 9.14514C25.8679 9.14514 24.7523 9.14514 23.6367 9.14514C22.9394 10.2563 22.2422 11.2194 21.5449 12.2565Z" fill="#1A1A1A"/>
<path d="M21.6844 45.7405C22.8698 45.7405 23.9156 45.7405 25.3101 45.7405C21.6844 39.0733 18.1285 32.5543 14.5028 25.813C13.8055 27.0724 13.2477 28.0354 12.6899 29.0726C15.6881 34.7767 18.6863 40.2586 21.6844 45.7405Z" fill="#1A1A1A"/>
<path d="M10.8768 32.4802C10.1796 33.7396 9.62176 34.7026 9.06396 35.8138C10.2493 38.0362 11.5043 40.2586 12.6897 42.481C13.8053 42.481 14.8511 42.481 16.2456 42.481C14.4328 39.0733 12.6897 35.962 10.8768 32.4802Z" fill="#1A1A1A"/>
</g>
<path d="M50.178 11.6H62.168V13.954H52.994V17.738H57.548C59.396 17.738 60.7967 18.1267 61.75 18.904C62.718 19.6667 63.202 20.774 63.202 22.226C63.202 23.7513 62.674 24.932 61.618 25.768C60.562 26.5893 59.0587 27 57.108 27H50.178V11.6ZM56.954 24.8C58.054 24.8 58.89 24.5873 59.462 24.162C60.034 23.7367 60.32 23.1207 60.32 22.314C60.32 20.73 59.198 19.938 56.954 19.938H52.994V24.8H56.954ZM74.4297 11.6C75.7644 11.6 76.9231 11.82 77.9057 12.26C78.9031 12.7 79.6657 13.3307 80.1937 14.152C80.7217 14.9733 80.9857 15.9487 80.9857 17.078C80.9857 18.1927 80.7217 19.168 80.1937 20.004C79.6657 20.8253 78.9031 21.456 77.9057 21.896C76.9231 22.336 75.7644 22.556 74.4297 22.556H70.9537V27H68.0937V11.6H74.4297ZM74.2977 20.136C75.5444 20.136 76.4904 19.872 77.1357 19.344C77.7811 18.816 78.1037 18.0607 78.1037 17.078C78.1037 16.0953 77.7811 15.34 77.1357 14.812C76.4904 14.284 75.5444 14.02 74.2977 14.02H70.9537V20.136H74.2977ZM85.4734 11.6H88.2894V22.534L96.5614 11.6H99.2234V27H96.4074V16.088L88.1354 27H85.4734V11.6ZM115.751 14.02H108.117L108.139 27H105.323V11.6H115.773L115.751 14.02ZM127.174 23.436H119.474L117.956 27H115.008L121.938 11.6H124.754L131.706 27H128.714L127.174 23.436ZM126.228 21.192L123.324 14.46L120.442 21.192H126.228ZM151.203 24.58V30.278H148.563V27H136.749V30.278H134.087L134.109 24.58H134.769C135.737 24.536 136.411 23.8247 136.793 22.446C137.189 21.0527 137.431 19.0653 137.519 16.484L137.695 11.6H148.981V24.58H151.203ZM140.027 16.748C139.953 18.7427 139.792 20.4073 139.543 21.742C139.293 23.062 138.897 24.008 138.355 24.58H146.165V14.02H140.137L140.027 16.748ZM165.971 23.436H158.271L156.753 27H153.805L160.735 11.6H163.551L170.503 27H167.511L165.971 23.436ZM165.025 21.192L162.121 14.46L159.239 21.192H165.025ZM59.83 38.2V48H58.836V40.16L54.986 46.754H54.496L50.646 40.202V48H49.652V38.2H50.506L54.762 45.466L58.976 38.2H59.83ZM67.4305 48.084C66.4598 48.084 65.5778 47.8693 64.7845 47.44C64.0005 47.0013 63.3845 46.404 62.9365 45.648C62.4978 44.892 62.2785 44.0427 62.2785 43.1C62.2785 42.1573 62.4978 41.308 62.9365 40.552C63.3845 39.796 64.0005 39.2033 64.7845 38.774C65.5778 38.3353 66.4598 38.116 67.4305 38.116C68.4011 38.116 69.2738 38.3307 70.0485 38.76C70.8325 39.1893 71.4485 39.7867 71.8965 40.552C72.3445 41.308 72.5685 42.1573 72.5685 43.1C72.5685 44.0427 72.3445 44.8967 71.8965 45.662C71.4485 46.418 70.8325 47.0107 70.0485 47.44C69.2738 47.8693 68.4011 48.084 67.4305 48.084ZM67.4305 47.16C68.2051 47.16 68.9051 46.9873 69.5305 46.642C70.1558 46.2873 70.6458 45.802 71.0005 45.186C71.3551 44.5607 71.5325 43.8653 71.5325 43.1C71.5325 42.3347 71.3551 41.644 71.0005 41.028C70.6458 40.4027 70.1558 39.9173 69.5305 39.572C68.9051 39.2173 68.2051 39.04 67.4305 39.04C66.6558 39.04 65.9511 39.2173 65.3165 39.572C64.6911 39.9173 64.1965 40.4027 63.8325 41.028C63.4778 41.644 63.3005 42.3347 63.3005 43.1C63.3005 43.8653 63.4778 44.5607 63.8325 45.186C64.1965 45.802 64.6911 46.2873 65.3165 46.642C65.9511 46.9873 66.6558 47.16 67.4305 47.16ZM83.2307 38.2V48H82.2087V43.478H76.0767V48H75.0407V38.2H76.0767V42.568H82.2087V38.2H83.2307ZM92.9507 39.096H89.5067V48H88.4847V39.096H85.0407V38.2H92.9507V39.096ZM100.549 45.382H95.089L93.913 48H92.835L97.315 38.2H98.337L102.817 48H101.725L100.549 45.382ZM100.171 44.542L97.819 39.278L95.467 44.542H100.171ZM112.21 43.506H110.18V48H109.172V43.506H107.128L104.132 48H102.928L106.288 42.946L103.18 38.2H104.3L107.114 42.596H109.172V38.2H110.18V42.596H112.21L115.038 38.2H116.158L113.05 42.946L116.41 48H115.206L112.21 43.506ZM126.242 38.2V48H125.22V43.478H119.088V48H118.052V38.2H119.088V42.568H125.22V38.2H126.242ZM129.55 38.2H130.572V46.32L136.844 38.2H137.782V48H136.76V39.894L130.488 48H129.55V38.2ZM144.338 43.506H142.098V48H141.09V38.2H142.098V42.596H144.338L147.656 38.2H148.776L145.136 42.96L148.986 48H147.796L144.338 43.506ZM154.862 48.084C153.891 48.084 153.009 47.8693 152.216 47.44C151.432 47.0013 150.816 46.404 150.368 45.648C149.929 44.892 149.71 44.0427 149.71 43.1C149.71 42.1573 149.929 41.308 150.368 40.552C150.816 39.796 151.432 39.2033 152.216 38.774C153.009 38.3353 153.891 38.116 154.862 38.116C155.833 38.116 156.705 38.3307 157.48 38.76C158.264 39.1893 158.88 39.7867 159.328 40.552C159.776 41.308 160 42.1573 160 43.1C160 44.0427 159.776 44.8967 159.328 45.662C158.88 46.418 158.264 47.0107 157.48 47.44C156.705 47.8693 155.833 48.084 154.862 48.084ZM154.862 47.16C155.637 47.16 156.337 46.9873 156.962 46.642C157.587 46.2873 158.077 45.802 158.432 45.186C158.787 44.5607 158.964 43.8653 158.964 43.1C158.964 42.3347 158.787 41.644 158.432 41.028C158.077 40.4027 157.587 39.9173 156.962 39.572C156.337 39.2173 155.637 39.04 154.862 39.04C154.087 39.04 153.383 39.2173 152.748 39.572C152.123 39.9173 151.628 40.4027 151.264 41.028C150.909 41.644 150.732 42.3347 150.732 43.1C150.732 43.8653 150.909 44.5607 151.264 45.186C151.628 45.802 152.123 46.2873 152.748 46.642C153.383 46.9873 154.087 47.16 154.862 47.16ZM168.282 42.946C168.964 43.086 169.482 43.3613 169.836 43.772C170.191 44.1733 170.368 44.7007 170.368 45.354C170.368 46.2033 170.065 46.8567 169.458 47.314C168.861 47.7713 167.979 48 166.812 48H162.472V38.2H166.546C167.592 38.2 168.408 38.4147 168.996 38.844C169.584 39.2733 169.878 39.894 169.878 40.706C169.878 41.2567 169.738 41.7233 169.458 42.106C169.178 42.4793 168.786 42.7593 168.282 42.946ZM163.494 42.638H166.49C167.246 42.638 167.825 42.484 168.226 42.176C168.637 41.868 168.842 41.42 168.842 40.832C168.842 40.244 168.637 39.796 168.226 39.488C167.825 39.18 167.246 39.026 166.49 39.026H163.494V42.638ZM166.812 47.174C168.502 47.174 169.346 46.544 169.346 45.284C169.346 44.052 168.502 43.436 166.812 43.436H163.494V47.174H166.812Z" fill="#1A1A1A"/>
<defs>
<clipPath id="clip0">
<rect width="38" height="39.8549" fill="white" transform="translate(0 9.14514)"/>
</clipPath>
</defs>
</svg>
