<?xml version="1.0" encoding="utf-8"?>
<!-- Generator: Adobe Illustrator 20.1.0, SVG Export Plug-In . SVG Version: 6.00 Build 0)  -->
<svg version="1.1" id="Слой_1" xmlns="http://www.w3.org/2000/svg" xmlns:xlink="http://www.w3.org/1999/xlink" x="0px" y="0px"
	 viewBox="0 0 1205.3 243.3" xml:space="preserve">
<style type="text/css">
	.st0{display:none;}
	.st1{fill:#428BCA;stroke:#000000;stroke-width:6;stroke-linejoin:round;stroke-miterlimit:10;}
	.st2{fill:none;stroke:#000000;stroke-width:6;stroke-miterlimit:10;}
	.st3{fill:none;stroke:#000000;stroke-width:4;stroke-miterlimit:10;}
	.st4{fill:none;stroke:#000000;stroke-width:6;stroke-linecap:round;stroke-linejoin:round;stroke-miterlimit:10;}
	.st5{fill:none;stroke:#000000;stroke-width:6;stroke-linejoin:round;stroke-miterlimit:10;}
	.st6{fill:#428BCA;stroke:#000000;stroke-width:6;stroke-linecap:round;stroke-linejoin:round;stroke-miterlimit:10;}
</style>
<path class="st0" d="M361.5-187.4v-16.4h-23.4L156.7-259v-10.3H58.4v11.5l-100.4,54h-22.5v32.8h-41v98.3h98.3V-171h-41v-16.4H58.3
	v409.7H1v16.4h213v-16.4h-57.4v-409.7h106.5v49.2H228L240.3-89h22.8v25.4c-18.7,3.8-32.8,20.4-32.8,40.1c0,22.6,18.4,41,41,41
	s41-18.4,41-41H296c0,13.6-11,24.6-24.6,24.6s-24.6-11-24.6-24.6s11-24.6,24.6-24.6h8.2v-41h22.8l12.3-49.2h-35.1v-49.1H361.5z
	 M-23.6-89h-65.5v-65.5h65.5V-89z M289.6-105.4h-36.4l-4.1-16.4h44.6L289.6-105.4z M140.3-252.9v49.2H74.8v-49.2H140.3z M-7.5-203.8
	l65.8-35.4v35.4H-7.5z M129.8-187.4l-55.1,68.8v-68.8H129.8z M140.3,127.3L85.2,58.5l55.1-68.8V127.3z M74.7-92.3l55.1,68.8
	L74.7,45.3L74.7-92.3L74.7-92.3z M74.7,71.6l55.1,68.8l-55.1,68.8L74.7,71.6L74.7,71.6z M140.3-36.6l-55.1-68.8l55.1-68.8V-36.6z
	 M85.2,222.3l55.1-68.8v68.8L85.2,222.3L85.2,222.3z M156.7-241.9l125.2,38.1H156.7V-241.9z"/>
<g>
	<path d="M240.4,175.1c4-6.4,9.8-8.9,17.4-8.9c14.4,0,23.5,10.4,23.5,27.1s-9,27.4-23.1,27.4c-7.6,0-12.9-2.5-17.3-8.5v27.1h-8.5
		v-71.5h8V175.1z M240.6,193.4c0,12.5,6.2,20.1,16.2,20.1c9.7,0,15.7-7.7,15.7-20.1c0-12.5-6-20.1-16-20.1
		C246.6,173.3,240.6,180.9,240.6,193.4z"/>
	<path d="M291.7,219.4v-51.6h8.5v42.1h0.2l23.2-42.1h10.9v51.6H326v-42.1h-0.2l-23.2,42.1H291.7z"/>
	<path d="M356,175.3v44.1h-8.5v-51.6h35.4v7.5H356z"/>
	<path d="M432.6,219.2c-1.8,0.7-3.9,1-5.8,1c-4.8,0-7.4-2.7-7.5-7.6c-5.1,5.7-10.7,8.2-18.7,8.2c-10.2,0-16.5-5.6-16.5-14.6
		c0-9.2,6.1-14.6,18.3-16.1c12.3-1.5,16.5-1.2,16.5-8.2c0-5.5-4.1-8.5-11.7-8.5c-7.9,0-12,2.9-12.8,10.5h-8.3
		c0.3-11,8.3-17.5,21.6-17.5c6.9,0,12.8,1.8,16.2,5c3.6,3.5,3.5,8.8,3.5,13.4c0,7.7-0.4,15.3-0.4,23c0,3.8,0.9,5.1,3.5,5.1
		c0.8,0,1.2-0.1,2.1-0.3V219.2z M407.5,195.7c-6.2,0.8-14.6,1.5-14.6,9.8c0,5.3,3.9,8.6,10.3,8.6c8,0,15.7-5.5,15.7-12.1v-9.4
		C415.7,195,411.3,195.2,407.5,195.7z"/>
	<path d="M482.5,235.8v-16.4h-39.4v16.4H435v-23.9h5.6c3-5.7,6.5-20.1,6.5-33.1v-11h36.8v44.1h6.7v23.9H482.5z M475.4,175.3h-20v4.3
		c0,12.9-3.2,26.8-6,32.3h26V175.3z"/>
	<path d="M543.7,219.2c-1.8,0.7-3.9,1-5.8,1c-4.8,0-7.4-2.7-7.5-7.6c-5.1,5.7-10.7,8.2-18.7,8.2c-10.2,0-16.5-5.6-16.5-14.6
		c0-9.2,6.1-14.6,18.3-16.1c12.3-1.5,16.5-1.2,16.5-8.2c0-5.5-4.1-8.5-11.7-8.5c-7.9,0-12,2.9-12.8,10.5h-8.3
		c0.3-11,8.3-17.5,21.6-17.5c6.9,0,12.8,1.8,16.2,5c3.6,3.5,3.5,8.8,3.5,13.4c0,7.7-0.4,15.3-0.4,23c0,3.8,0.9,5.1,3.5,5.1
		c0.8,0,1.2-0.1,2.1-0.3V219.2z M518.6,195.7c-6.2,0.8-14.6,1.5-14.6,9.8c0,5.3,3.9,8.6,10.3,8.6c8,0,15.7-5.5,15.7-12.1v-9.4
		C526.8,195,522.4,195.2,518.6,195.7z"/>
	<path d="M626.9,219.4v-40.7h-0.3l-15.3,40.7h-7.8l-15.3-40.7h-0.3v40.7h-8.5v-51.6h12.2l15.7,41.8h0.2l15.7-41.8h12.2v51.6H626.9z"
		/>
	<path d="M695.3,193.3c0,17.5-9.1,27.7-24.8,27.7c-15.8,0-25.2-10.2-25.2-27.2s9.7-27.5,25.3-27.5
		C686.2,166.3,695.3,176.2,695.3,193.3z M654.1,193.6c0,12.7,6.1,20.2,16.5,20.2c10,0,16-7.6,16-20.3c0-12.3-6.2-20.1-16.2-20.1
		S654.1,181.3,654.1,193.6z"/>
	<path d="M705.4,219.4v-51.6h8.5v20.5h25.8v-20.5h8.5v51.6h-8.5v-23.6h-25.8v23.6H705.4z"/>
	<path d="M782,175.3v44.1h-8.5v-44.1H755v-7.5h45.5v7.5H782z"/>
	<path d="M851.2,219.2c-1.8,0.7-3.9,1-5.8,1c-4.8,0-7.4-2.7-7.5-7.6c-5.1,5.7-10.7,8.2-18.7,8.2c-10.2,0-16.5-5.6-16.5-14.6
		c0-9.2,6.1-14.6,18.3-16.1c12.3-1.5,16.5-1.2,16.5-8.2c0-5.5-4.1-8.5-11.7-8.5c-7.9,0-12,2.9-12.8,10.5h-8.3
		c0.3-11,8.3-17.5,21.6-17.5c6.9,0,12.8,1.8,16.2,5c3.6,3.5,3.5,8.8,3.5,13.4c0,7.7-0.4,15.3-0.4,23c0,3.8,0.9,5.1,3.5,5.1
		c0.8,0,1.2-0.1,2.1-0.3V219.2z M826.1,195.7c-6.2,0.8-14.6,1.5-14.6,9.8c0,5.3,3.9,8.6,10.3,8.6c8,0,15.7-5.5,15.7-12.1v-9.4
		C834.3,195,829.9,195.2,826.1,195.7z"/>
	<path d="M863.3,219.4h-10.5l22.6-30.4l-19.7-21.2h10.5l21,23.7h0.2v-23.7h8.5v23.7h0.2l21-23.7h10.5L907.9,189l22.6,30.4H920
		l-17.7-25l-6.4,6.5v18.5h-8.5v-18.5l-6.4-6.5L863.3,219.4z"/>
	<path d="M937,219.4v-51.6h8.5v20.5h25.8v-20.5h8.5v51.6h-8.5v-23.6h-25.8v23.6H937z"/>
	<path d="M992.6,219.4v-51.6h8.5v42.1h0.2l23.2-42.1h10.9v51.6h-8.5v-42.1h-0.2l-23.2,42.1H992.6z"/>
	<path d="M1083.6,219.4l-18.8-25.4l-8.1,7.9v17.5h-8.5v-51.6h8.5v24.6l23.6-24.6h11.4l-20.8,20.3l23.5,31.3H1083.6z"/>
	<path d="M1147.4,193.3c0,17.5-9.1,27.7-24.8,27.7c-15.8,0-25.2-10.2-25.2-27.2s9.7-27.5,25.3-27.5
		C1138.3,166.3,1147.4,176.2,1147.4,193.3z M1106.2,193.6c0,12.7,6.1,20.2,16.5,20.2c10,0,16-7.6,16-20.3c0-12.3-6.2-20.1-16.2-20.1
		S1106.2,181.3,1106.2,193.6z"/>
	<path d="M1157.3,167.8h23.9c9,0,17.7,2,17.7,12.5c0,5.5-2.8,8.9-7.6,11.1v0.1c6,1.2,9.8,5.8,9.8,12.7c0,8.8-6.5,15.2-15.7,15.2
		h-28.1V167.8z M1190.1,181.7c0-4.3-2.3-6.6-9.8-6.6h-14.7v13.5h14.7C1187.6,188.6,1190.1,186.1,1190.1,181.7z M1165.6,212.1h18.2
		c5.4,0,8.5-3.7,8.5-8.6c0-4.7-3-7.7-10-7.7h-16.7V212.1z"/>
</g>
<g>
	<path d="M198.7,160.8c14,0,21.9,7.8,21.9,21.3c0,13.4-8,21.1-21.9,21.1h-33.2V132h48.8v8.2h-39.4v20.6H198.7z M195.6,169h-20.7v26
		h20.7c10.4,0,15.6-4.2,15.6-12.9C211.2,173.3,206.1,169,195.6,169z"/>
</g>
<rect x="64.5" y="34.1" class="st1" width="60.5" height="24.1"/>
<rect x="74.1" y="58.3" class="st2" width="40.1" height="168.9"/>
<line class="st3" x1="130.6" y1="227.1" x2="56.6" y2="227.1"/>
<line class="st4" x1="234.7" y1="34.1" x2="5.2" y2="34.1"/>
<rect x="181.1" y="34.1" class="st5" width="22.6" height="27.5"/>
<polygon class="st1" points="207.1,61.6 177.7,61.6 192.4,84 "/>
<path class="st4" d="M181.6,100.2c0,6,4.8,10.8,10.8,10.8c6,0,10.8-4.8,10.8-10.8c0-6-4.8-10.8-10.8-10.8v-0.1V84"/>
<polygon class="st4" points="227.2,34.1 94.8,6 20.4,34.1 "/>
<line class="st4" x1="94.8" y1="8.6" x2="94.8" y2="34.1"/>
<polyline class="st5" points="74.6,58.9 112.7,85.3 74.6,111.8 112.7,138.3 74.6,164.8 112.7,191.3 74.6,217.8 "/>
<polygon class="st4" points="208.5,136.4 192.4,111.1 176.3,136.4 "/>
<rect x="56.6" y="217.5" class="st6" width="74" height="21.1"/>
</svg>
