<?xml version="1.0" encoding="utf-8"?>
<!-- Generator: Adobe Illustrator 20.1.0, SVG Export Plug-In . SVG Version: 6.00 Build 0)  -->
<svg version="1.1" id="Слой_1" xmlns="http://www.w3.org/2000/svg" xmlns:xlink="http://www.w3.org/1999/xlink" x="0px" y="0px"
	 viewBox="0 0 512 510" xml:space="preserve">
<path d="M489.5,83.9V67.5h-23.4L284.7,12.3V2h-98.3v11.5L86,67.5H63.5v32.8h-41v98.3h98.3v-98.3h-41V83.9h106.5v409.7H129V510h213
	v-16.4h-57.4V83.9h106.5v49.2H356l12.3,49.2h22.8v25.4c-18.7,3.8-32.8,20.4-32.8,40.1c0,22.6,18.4,41,41,41s41-18.4,41-41H424
	c0,13.6-11,24.6-24.6,24.6s-24.6-11-24.6-24.6s11-24.6,24.6-24.6h8.2v-41h22.8l12.3-49.2h-35.1V83.9H489.5z M104.4,182.3H38.9v-65.5
	h65.5V182.3z M417.6,165.9h-36.4l-4.1-16.4h44.6L417.6,165.9z M268.3,18.4v49.2h-65.5V18.4H268.3z M120.5,67.5l65.8-35.4v35.4H120.5
	z M257.8,83.9l-55.1,68.8V83.9H257.8z M268.3,398.6l-55.1-68.8l55.1-68.8V398.6z M202.7,179l55.1,68.8l-55.1,68.8L202.7,179
	L202.7,179z M202.7,342.9l55.1,68.8l-55.1,68.8L202.7,342.9L202.7,342.9z M268.3,234.7l-55.1-68.8l55.1-68.8V234.7z M213.2,493.6
	l55.1-68.8v68.8L213.2,493.6L213.2,493.6z M284.7,29.4l125.2,38.1H284.7V29.4z"/>
</svg>
