<?xml version="1.0" encoding="utf-8"?>
<!-- Generator: Adobe Illustrator 20.1.0, SVG Export Plug-In . SVG Version: 6.00 Build 0)  -->
<svg version="1.1" id="Слой_1" xmlns="http://www.w3.org/2000/svg" xmlns:xlink="http://www.w3.org/1999/xlink" x="0px" y="0px"
	 viewBox="0 0 240 243.3" xml:space="preserve">
<style type="text/css">
	.st0{display:none;}
	.st1{fill:#428BCA;stroke:#000000;stroke-width:6;stroke-linejoin:round;stroke-miterlimit:10;}
	.st2{fill:none;stroke:#000000;stroke-width:6;stroke-miterlimit:10;}
	.st3{fill:none;stroke:#000000;stroke-width:4;stroke-miterlimit:10;}
	.st4{fill:none;stroke:#000000;stroke-width:6;stroke-linecap:round;stroke-linejoin:round;stroke-miterlimit:10;}
	.st5{fill:none;stroke:#000000;stroke-width:6;stroke-linejoin:round;stroke-miterlimit:10;}
	.st6{fill:#428BCA;stroke:#000000;stroke-width:6;stroke-linecap:round;stroke-linejoin:round;stroke-miterlimit:10;}
</style>
<path class="st0" d="M361.5-187.4v-16.4h-23.4L156.7-259v-10.3H58.4v11.5l-100.4,54h-22.5v32.8h-41v98.3h98.3V-171h-41v-16.4H58.3
	v409.7H1v16.4h213v-16.4h-57.4v-409.7h106.5v49.2H228L240.3-89h22.8v25.4c-18.7,3.8-32.8,20.4-32.8,40.1c0,22.6,18.4,41,41,41
	s41-18.4,41-41H296c0,13.6-11,24.6-24.6,24.6s-24.6-11-24.6-24.6s11-24.6,24.6-24.6h8.2v-41h22.8l12.3-49.2h-35.1v-49.1H361.5z
	 M-23.6-89h-65.5v-65.5h65.5V-89z M289.6-105.4h-36.4l-4.1-16.4h44.6L289.6-105.4z M140.3-252.9v49.2H74.8v-49.2H140.3z M-7.5-203.8
	l65.8-35.4v35.4H-7.5z M129.8-187.4l-55.1,68.8v-68.8H129.8z M140.3,127.3L85.2,58.5l55.1-68.8V127.3z M74.7-92.3l55.1,68.8
	L74.7,45.3L74.7-92.3L74.7-92.3z M74.7,71.6l55.1,68.8l-55.1,68.8L74.7,71.6L74.7,71.6z M140.3-36.6l-55.1-68.8l55.1-68.8V-36.6z
	 M85.2,222.3l55.1-68.8v68.8L85.2,222.3L85.2,222.3z M156.7-241.9l125.2,38.1H156.7V-241.9z"/>
<rect x="64.5" y="34.1" class="st1" width="60.5" height="24.1"/>
<rect x="74.1" y="58.3" class="st2" width="40.1" height="168.9"/>
<line class="st3" x1="130.6" y1="227.1" x2="56.6" y2="227.1"/>
<line class="st4" x1="234.7" y1="34.1" x2="5.2" y2="34.1"/>
<rect x="181.1" y="34.1" class="st5" width="22.6" height="27.5"/>
<polygon class="st1" points="207.1,61.6 177.7,61.6 192.4,84 "/>
<path class="st4" d="M181.6,100.2c0,6,4.8,10.8,10.8,10.8c6,0,10.8-4.8,10.8-10.8c0-6-4.8-10.8-10.8-10.8v-0.1V84"/>
<polygon class="st4" points="227.2,34.1 94.8,6 20.4,34.1 "/>
<line class="st4" x1="94.8" y1="8.6" x2="94.8" y2="34.1"/>
<polyline class="st5" points="74.6,58.9 112.7,85.3 74.6,111.8 112.7,138.3 74.6,164.8 112.7,191.3 74.6,217.8 "/>
<rect x="56.6" y="217.5" class="st6" width="74" height="21.1"/>
</svg>
