<?xml version="1.0" encoding="utf-8"?>
<!-- Generator: Adobe Illustrator 20.1.0, SVG Export Plug-In . SVG Version: 6.00 Build 0)  -->
<svg version="1.1" id="Слой_1" xmlns="http://www.w3.org/2000/svg" xmlns:xlink="http://www.w3.org/1999/xlink" x="0px" y="0px"
	 viewBox="0 0 242.1 307.9" style="enable-background:new 0 0 242.1 307.9;" xml:space="preserve">
<style type="text/css">
	.st0{display:none;}
	.st1{fill:#428BCA;stroke:#000000;stroke-width:6;stroke-linejoin:round;stroke-miterlimit:10;}
	.st2{fill:none;stroke:#000000;stroke-width:6;stroke-miterlimit:10;}
	.st3{fill:none;stroke:#000000;stroke-width:4;stroke-miterlimit:10;}
	.st4{fill:none;stroke:#000000;stroke-width:6;stroke-linecap:round;stroke-linejoin:round;stroke-miterlimit:10;}
	.st5{fill:none;stroke:#000000;stroke-width:6;stroke-linejoin:round;stroke-miterlimit:10;}
	.st6{fill:#428BCA;stroke:#000000;stroke-width:6;stroke-linecap:round;stroke-linejoin:round;stroke-miterlimit:10;}
	.st7{fill:#B62110;}
	.st8{fill:none;stroke:#CC3122;stroke-width:3.0936;stroke-linecap:round;stroke-miterlimit:10;}
	.st9{fill:#F2F9F1;}
	.st10{fill:#A71D0D;}
	.st11{fill:none;stroke:#B62110;stroke-width:2.2389;stroke-linecap:round;stroke-miterlimit:10;}
	.st12{fill:none;stroke:#B62110;stroke-width:2.2404;stroke-linecap:round;stroke-linejoin:round;stroke-miterlimit:10;}
	.st13{fill:none;stroke:#CC3122;stroke-width:2.2389;stroke-linejoin:round;stroke-miterlimit:10;}
	.st14{fill:none;stroke:#CC3122;stroke-width:2.2389;stroke-linecap:round;stroke-miterlimit:10;}
	.st15{fill:none;stroke:#CC3122;stroke-width:2.2404;stroke-linecap:round;stroke-linejoin:round;stroke-miterlimit:10;}
	.st16{fill:#EDB815;}
	.st17{fill:none;stroke:#E8A20C;stroke-width:1.4658;stroke-linecap:round;}
	.st18{fill:#428BCA;}
	.st19{fill:#EAE2CA;}
	.st20{fill:#387C17;}
	.st21{fill:none;stroke:#F2F9F1;stroke-width:2.9317;stroke-linecap:round;stroke-miterlimit:10;}
</style>
<path class="st0" d="M363.6-122.8v-16.4h-23.4l-181.4-55.2v-10.3H60.5v11.5l-100.4,54h-22.5v32.8h-41v98.3h98.3v-98.3h-41v-16.4
	H60.4v409.7H3.1v16.4h213v-16.4h-57.4v-409.7h106.5v49.2h-35.1l12.3,49.2h22.8V1c-18.7,3.8-32.8,20.4-32.8,40.1
	c0,22.6,18.4,41,41,41s41-18.4,41-41h-16.3c0,13.6-11,24.6-24.6,24.6s-24.6-11-24.6-24.6s11-24.6,24.6-24.6h8.2v-41h22.8l12.3-49.2
	h-35.1v-49.1H363.6z M-21.5-24.4H-87v-65.5h65.5C-21.5-89.9-21.5-24.4-21.5-24.4z M291.7-40.8h-36.4l-4.1-16.4h44.6L291.7-40.8z
	 M142.4-188.3v49.2H76.9v-49.2H142.4z M-5.4-139.2l65.8-35.4v35.4L-5.4-139.2L-5.4-139.2z M131.9-122.8L76.8-54v-68.8H131.9z
	 M142.4,191.9l-55.1-68.8l55.1-68.8L142.4,191.9L142.4,191.9z M76.8-27.7l55.1,68.8l-55.1,68.8V-27.7L76.8-27.7z M76.8,136.2
	l55.1,68.8l-55.1,68.8L76.8,136.2L76.8,136.2z M142.4,28L87.3-40.8l55.1-68.8V28z M87.3,286.9l55.1-68.8v68.8H87.3L87.3,286.9z
	 M158.8-177.3L284-139.2H158.8V-177.3z"/>
<rect x="66.6" y="98.7" class="st1" width="60.5" height="24.1"/>
<rect x="76.2" y="122.9" class="st2" width="40.1" height="168.9"/>
<line class="st3" x1="132.7" y1="291.7" x2="58.7" y2="291.7"/>
<line class="st4" x1="236.8" y1="98.7" x2="7.3" y2="98.7"/>
<rect x="183.2" y="98.7" class="st5" width="22.6" height="27.5"/>
<polygon class="st1" points="209.2,126.2 179.8,126.2 194.5,148.6 "/>
<path class="st4" d="M183.7,164.8c0,6,4.8,10.8,10.8,10.8s10.8-4.8,10.8-10.8s-4.8-10.8-10.8-10.8v-0.1v-5.3"/>
<polygon class="st4" points="229.3,98.7 96.9,70.6 22.5,98.7 "/>
<line class="st4" x1="96.9" y1="73.2" x2="96.9" y2="98.7"/>
<polyline class="st5" points="76.7,123.5 114.8,149.9 76.7,176.4 114.8,202.9 76.7,229.4 114.8,255.9 76.7,282.4 "/>
<rect x="58.7" y="282.1" class="st6" width="74" height="21.1"/>
<g>
	<path class="st7" d="M13.7,71.2c0.7,3.6,5.9,3.7,6.7,0.1l6.1-26.7c1.4-6,6.6-10.5,12.9-10.8l0.3,0c8.2-0.5,15.1,6.1,14.9,14.3
		L54,72.2L141.1,56l-29.9-38.4C100.8,4.1,83.6-2.4,66.8,0.8l0,0L37.4,6.5C18,10.2,5.4,28.7,9.1,47.9L13.7,71.2z"/>
	<path class="st8" d="M72.3,10.3l-34.8,6.7C23.3,19.7,14,33.3,16.7,47.4"/>
	<path class="st9" d="M32.7,82.5c1.7,8.9-4.1,17.4-13.1,19.1S2,97.5,0.3,88.7c-1.7-8.9,4.1-17.4,13.1-19.1
		C22.3,67.8,30.9,73.6,32.7,82.5z"/>
	<path class="st10" d="M54.6,48L54,72.2l21-3.9c5.8-4.7,9.7-11.5,10.4-19.3c1.2-12.2-9.8-22.2-22-19.9l-24,4.6l0.3,0
		C47.9,33.2,54.8,39.8,54.6,48z"/>
</g>
<g>
	<path class="st9" d="M141.8,73.5l-83.2,16c-7.1,1.4-14-3.2-15.4-10.3l0,0c-1.4-7.1,3.3-13.9,10.4-15.2l83.2-16
		c7.1-1.4,14,3.2,15.4,10.3l0,0C153.5,65.3,148.9,72.2,141.8,73.5z"/>
</g>
<path class="st11" d="M190.4,214.4c-3.5,3-8.4,3.6-12.6,1.7l0,0c-4.2-1.9-9.1-1.3-12.6,1.7l0,0c-1,0.8-2.1,1.5-3.2,1.9"/>
<line class="st11" x1="194.7" y1="193.1" x2="194.7" y2="214.3"/>
<line class="st11" x1="194.7" y1="181" x2="194.7" y2="187.5"/>
<line class="st11" x1="194.7" y1="174.1" x2="194.7" y2="175"/>
<path class="st12" d="M194.5,214.2l10.5-12.7c1.3-1.6,3.7-1.9,5.4-0.5l0,0"/>
<path class="st13" d="M170.9,201L170.9,201c1.2-3.4,5.6-4.4,8.2-1.9l15.4,15.2l-20.5-7.1C171.4,206.3,170,203.5,170.9,201z"/>
<path class="st14" d="M194.9,214.3c4.4-1.4,9.2,0,12.3,3.4l0,0c3.1,3.4,7.9,4.7,12.3,3.4l0,0c2.7-0.8,5.5-0.7,8,0.4"/>
<path class="st15" d="M210.4,200.9c2.2,1.8,1.7,5.2-0.8,6.3l-15.1,6.9"/>
<path class="st16" d="M191.7,214.5h6c0.6,0,1.2,0.5,1.2,1.2v10.7h-8.4v-10.7C190.5,215.1,191,214.5,191.7,214.5z"/>
<g>
	<line class="st17" x1="196.5" y1="216.9" x2="196.5" y2="224.5"/>
	<line class="st17" x1="192.8" y1="216.9" x2="192.8" y2="224.5"/>
</g>
<path class="st18" d="M194.7,219.2c-14.6,0-26.4,11.7-26.4,26.2c0,14.5,11.8,26.2,26.4,26.2c14.6,0,26.4-11.7,26.4-26.2
	C221.1,230.9,209.3,219.2,194.7,219.2z"/>
<path class="st19" d="M170.8,234.1h47.7c1.6,3.4,2.6,7.2,2.6,11.3c0,4.1-1,8-2.7,11.5h-47.5c-1.7-3.5-2.7-7.4-2.7-11.5
	C168.3,241.4,169.2,237.5,170.8,234.1z"/>
<path class="st20" d="M168.3,246.8c0.2,0,0.5,0,0.6,0.2c0.9,1,1.9,1.5,2.9,1.5l0,0.8v-0.8c1.6,0,3.1-1.3,4.3-3.5l0.1-0.2
	c1.7-3.3,4.2-5.1,6.8-5.1c2.6,0,5,1.8,6.8,5.1c1.3,2.4,2.8,3.7,4.4,3.7c1.6,0,3.2-1.3,4.4-3.7c1.7-3.3,4.2-5.1,6.8-5.1
	c2.6,0,5,1.8,6.8,5.1c1.3,2.4,2.8,3.7,4.4,3.7c1.6,0,2.9-1.3,3.7-2.4c0.2-0.2,0.4-0.3,0.7-0.3c0,1.3-0.1,2.6-0.3,3.8
	c-1.2,1-2.6,1.6-4,1.6c-2.6,0-5-1.8-6.8-5.1c-1.3-2.4-2.8-3.7-4.5-3.7c-1.6,0-3.2,1.3-4.4,3.7c-1.7,3.3-4.1,5.1-6.8,5.1
	c-2.6,0-5-1.8-6.8-5.1c-1.3-2.4-2.8-3.7-4.5-3.7c-1.6,0-3.1,1.3-4.4,3.5l-0.1,0.2c-1.7,3.3-4.1,5-6.8,5c-1.1,0-2.1-0.3-3.1-0.9
	C168.5,249,168.4,247.9,168.3,246.8z"/>
<g>
	<ellipse class="st7" cx="205.5" cy="248.2" rx="2.4" ry="2.4"/>
	<ellipse class="st7" cx="183.1" cy="248.2" rx="2.4" ry="2.4"/>
	<ellipse class="st7" cx="216.7" cy="242.6" rx="2.4" ry="2.4"/>
	<ellipse class="st7" cx="194.3" cy="242.6" rx="2.4" ry="2.4"/>
	<ellipse class="st7" cx="171.8" cy="242.6" rx="2.4" ry="2.4"/>
</g>
<path class="st19" d="M214.2,227.7c0.4,0.5,0.8,0.9,1.2,1.4H174c0.4-0.5,0.8-1,1.2-1.4H214.2z"/>
<path class="st19" d="M214,263.3h-38.6c-0.4-0.5-0.9-0.9-1.3-1.4h41.1C214.8,262.4,214.4,262.9,214,263.3z"/>
<g>
	<path class="st21" d="M198.4,224.5c-0.2,0-0.3-0.1-0.5-0.1"/>
	<path class="st21" d="M213.9,238.1c-0.6-1.6-1.3-3.1-2.2-4.5c-1.5-2.3-3.5-4.4-6-6c-0.7-0.4-1.3-0.8-2-1.2"/>
	<path class="st21" d="M213.9,252c0.8-2.3,1.2-4.6,1.2-6.9"/>
</g>
</svg>
