<?xml version="1.0" encoding="utf-8"?>
<!-- Generator: Adobe Illustrator 20.1.0, SVG Export Plug-In . SVG Version: 6.00 Build 0)  -->
<svg version="1.1" id="Слой_1" xmlns="http://www.w3.org/2000/svg" xmlns:xlink="http://www.w3.org/1999/xlink" x="0px" y="0px"
	 viewBox="0 0 1207.4 311.2" style="enable-background:new 0 0 1207.4 311.2;" xml:space="preserve">
<style type="text/css">
	.st0{display:none;}
	.st1{fill:#428BCA;stroke:#000000;stroke-width:6;stroke-linejoin:round;stroke-miterlimit:10;}
	.st2{fill:none;stroke:#000000;stroke-width:6;stroke-miterlimit:10;}
	.st3{fill:none;stroke:#000000;stroke-width:4;stroke-miterlimit:10;}
	.st4{fill:none;stroke:#000000;stroke-width:6;stroke-linecap:round;stroke-linejoin:round;stroke-miterlimit:10;}
	.st5{fill:none;stroke:#000000;stroke-width:6;stroke-linejoin:round;stroke-miterlimit:10;}
	.st6{fill:#428BCA;stroke:#000000;stroke-width:6;stroke-linecap:round;stroke-linejoin:round;stroke-miterlimit:10;}
	.st7{fill:#FFFFFF;}
	.st8{fill:url(#SVGID_1_);}
	.st9{fill:url(#SVGID_2_);}
	.st10{fill:#D3D790;}
	.st11{fill:url(#SVGID_3_);}
	.st12{fill:url(#SVGID_4_);}
	.st13{fill:#B62110;}
	.st14{fill:none;stroke:#CC3122;stroke-width:3.0936;stroke-linecap:round;stroke-miterlimit:10;}
	.st15{fill:#F2F9F1;}
	.st16{fill:#A71D0D;}
</style>
<path class="st0" d="M363.6-119.6V-136h-23.4l-181.4-55.2v-10.3H60.5v11.5l-100.4,54h-22.5v32.8h-41v98.3h98.3v-98.3h-41v-16.4H60.4
	v409.7H3.1v16.4h213v-16.4h-57.4v-409.7h106.5v49.2h-35.1l12.3,49.2h22.8V4.2c-18.7,3.8-32.8,20.4-32.8,40.1c0,22.6,18.4,41,41,41
	s41-18.4,41-41h-16.3c0,13.6-11,24.6-24.6,24.6s-24.6-11-24.6-24.6s11-24.6,24.6-24.6h8.2v-41h22.8l12.3-49.2h-35.1v-49.1H363.6z
	 M-21.5-21.2H-87v-65.5h65.5C-21.5-86.7-21.5-21.2-21.5-21.2z M291.7-37.6h-36.4L251.2-54h44.6L291.7-37.6z M142.4-185.1v49.2H76.9
	v-49.2H142.4z M-5.4-136l65.8-35.4v35.4L-5.4-136L-5.4-136z M131.9-119.6L76.8-50.8v-68.8H131.9z M142.4,195.1l-55.1-68.8l55.1-68.8
	L142.4,195.1L142.4,195.1z M76.8-24.5l55.1,68.8l-55.1,68.8V-24.5L76.8-24.5z M76.8,139.4l55.1,68.8L76.8,277L76.8,139.4L76.8,139.4
	z M142.4,31.2L87.3-37.6l55.1-68.8V31.2z M87.3,290.1l55.1-68.8v68.8H87.3L87.3,290.1z M158.8-174.1L284-136H158.8V-174.1z"/>
<g>
	<path d="M200.8,228.6c14,0,21.9,7.8,21.9,21.3c0,13.4-8,21.1-21.9,21.1h-33.2v-71.2h48.8v8.2H177v20.6H200.8z M197.7,236.8H177v26
		h20.7c10.4,0,15.6-4.2,15.6-12.9C213.3,241.1,208.2,236.8,197.7,236.8z"/>
</g>
<rect x="66.6" y="101.9" class="st1" width="60.5" height="24.1"/>
<rect x="76.2" y="126.1" class="st2" width="40.1" height="168.9"/>
<line class="st3" x1="132.7" y1="294.9" x2="58.7" y2="294.9"/>
<line class="st4" x1="236.8" y1="101.9" x2="7.3" y2="101.9"/>
<rect x="183.2" y="101.9" class="st5" width="22.6" height="27.5"/>
<polygon class="st1" points="209.2,129.4 179.8,129.4 194.5,151.8 "/>
<path class="st4" d="M183.7,168c0,6,4.8,10.8,10.8,10.8s10.8-4.8,10.8-10.8s-4.8-10.8-10.8-10.8v-0.1v-5.3"/>
<polygon class="st4" points="229.3,101.9 96.9,73.8 22.5,101.9 "/>
<line class="st4" x1="96.9" y1="76.4" x2="96.9" y2="101.9"/>
<polyline class="st5" points="76.7,126.7 114.8,153.1 76.7,179.6 114.8,206.1 76.7,232.6 114.8,259.1 76.7,285.6 "/>
<polygon class="st4" points="210.6,204.2 194.5,178.9 178.4,204.2 "/>
<rect x="58.7" y="285.3" class="st6" width="74" height="21.1"/>
<g id="бригада">
	<path d="M242.5,242.9c4-6.4,9.8-8.9,17.4-8.9c14.4,0,23.5,10.4,23.5,27.1s-9,27.4-23.1,27.4c-7.6,0-12.9-2.5-17.3-8.5v27.1h-8.5
		v-71.5h8L242.5,242.9L242.5,242.9z M242.7,261.2c0,12.5,6.2,20.1,16.2,20.1c9.7,0,15.7-7.7,15.7-20.1c0-12.5-6-20.1-16-20.1
		C248.7,241.1,242.7,248.7,242.7,261.2z"/>
	<path d="M293.8,287.2v-51.6h8.5v42.1h0.2l23.2-42.1h10.9v51.6h-8.5v-42.1h-0.2l-23.2,42.1H293.8z"/>
	<path d="M358.1,243.1v44.1h-8.5v-51.6H385v7.5L358.1,243.1L358.1,243.1z"/>
	<path d="M434.7,287c-1.8,0.7-3.9,1-5.8,1c-4.8,0-7.4-2.7-7.5-7.6c-5.1,5.7-10.7,8.2-18.7,8.2c-10.2,0-16.5-5.6-16.5-14.6
		c0-9.2,6.1-14.6,18.3-16.1c12.3-1.5,16.5-1.2,16.5-8.2c0-5.5-4.1-8.5-11.7-8.5c-7.9,0-12,2.9-12.8,10.5h-8.3
		c0.3-11,8.3-17.5,21.6-17.5c6.9,0,12.8,1.8,16.2,5c3.6,3.5,3.5,8.8,3.5,13.4c0,7.7-0.4,15.3-0.4,23c0,3.8,0.9,5.1,3.5,5.1
		c0.8,0,1.2-0.1,2.1-0.3L434.7,287L434.7,287z M409.6,263.5c-6.2,0.8-14.6,1.5-14.6,9.8c0,5.3,3.9,8.6,10.3,8.6
		c8,0,15.7-5.5,15.7-12.1v-9.4C417.8,262.8,413.4,263,409.6,263.5z"/>
	<path d="M484.6,303.6v-16.4h-39.4v16.4h-8.1v-23.9h5.6c3-5.7,6.5-20.1,6.5-33.1v-11H486v44.1h6.7v23.9L484.6,303.6L484.6,303.6z
		 M477.5,243.1h-20v4.3c0,12.9-3.2,26.8-6,32.3h26V243.1z"/>
	<path d="M545.8,287c-1.8,0.7-3.9,1-5.8,1c-4.8,0-7.4-2.7-7.5-7.6c-5.1,5.7-10.7,8.2-18.7,8.2c-10.2,0-16.5-5.6-16.5-14.6
		c0-9.2,6.1-14.6,18.3-16.1c12.3-1.5,16.5-1.2,16.5-8.2c0-5.5-4.1-8.5-11.7-8.5c-7.9,0-12,2.9-12.8,10.5h-8.3
		c0.3-11,8.3-17.5,21.6-17.5c6.9,0,12.8,1.8,16.2,5c3.6,3.5,3.5,8.8,3.5,13.4c0,7.7-0.4,15.3-0.4,23c0,3.8,0.9,5.1,3.5,5.1
		c0.8,0,1.2-0.1,2.1-0.3L545.8,287L545.8,287z M520.7,263.5c-6.2,0.8-14.6,1.5-14.6,9.8c0,5.3,3.9,8.6,10.3,8.6
		c8,0,15.7-5.5,15.7-12.1v-9.4C528.9,262.8,524.5,263,520.7,263.5z"/>
	<path d="M629,287.2v-40.7h-0.3l-15.3,40.7h-7.8l-15.3-40.7H590v40.7h-8.5v-51.6h12.2l15.7,41.8h0.2l15.7-41.8h12.2v51.6H629z"/>
	<path d="M697.4,261.1c0,17.5-9.1,27.7-24.8,27.7c-15.8,0-25.2-10.2-25.2-27.2s9.7-27.5,25.3-27.5
		C688.3,234.1,697.4,244,697.4,261.1z M656.2,261.4c0,12.7,6.1,20.2,16.5,20.2c10,0,16-7.6,16-20.3c0-12.3-6.2-20.1-16.2-20.1
		S656.2,249.1,656.2,261.4z"/>
	<path d="M707.5,287.2v-51.6h8.5v20.5h25.8v-20.5h8.5v51.6h-8.5v-23.6H716v23.6H707.5z"/>
	<path d="M784.1,243.1v44.1h-8.5v-44.1h-18.5v-7.5h45.5v7.5L784.1,243.1L784.1,243.1z"/>
	<path d="M853.3,287c-1.8,0.7-3.9,1-5.8,1c-4.8,0-7.4-2.7-7.5-7.6c-5.1,5.7-10.7,8.2-18.7,8.2c-10.2,0-16.5-5.6-16.5-14.6
		c0-9.2,6.1-14.6,18.3-16.1c12.3-1.5,16.5-1.2,16.5-8.2c0-5.5-4.1-8.5-11.7-8.5c-7.9,0-12,2.9-12.8,10.5h-8.3
		c0.3-11,8.3-17.5,21.6-17.5c6.9,0,12.8,1.8,16.2,5c3.6,3.5,3.5,8.8,3.5,13.4c0,7.7-0.4,15.3-0.4,23c0,3.8,0.9,5.1,3.5,5.1
		c0.8,0,1.2-0.1,2.1-0.3L853.3,287L853.3,287z M828.2,263.5c-6.2,0.8-14.6,1.5-14.6,9.8c0,5.3,3.9,8.6,10.3,8.6
		c8,0,15.7-5.5,15.7-12.1v-9.4C836.4,262.8,832,263,828.2,263.5z"/>
	<path d="M865.4,287.2h-10.5l22.6-30.4l-19.7-21.2h10.5l21,23.7h0.2v-23.7h8.5v23.7h0.2l21-23.7h10.5L910,256.8l22.6,30.4h-10.5
		l-17.7-25l-6.4,6.5v18.5h-8.5v-18.5l-6.4-6.5L865.4,287.2z"/>
	<path d="M939.1,287.2v-51.6h8.5v20.5h25.8v-20.5h8.5v51.6h-8.5v-23.6h-25.8v23.6H939.1z"/>
	<path d="M994.7,287.2v-51.6h8.5v42.1h0.2l23.2-42.1h10.9v51.6h-8.5v-42.1h-0.2l-23.2,42.1H994.7z"/>
	<path d="M1085.7,287.2l-18.8-25.4l-8.1,7.9v17.5h-8.5v-51.6h8.5v24.6l23.6-24.6h11.4l-20.8,20.3l23.5,31.3H1085.7z"/>
	<path d="M1149.5,261.1c0,17.5-9.1,27.7-24.8,27.7c-15.8,0-25.2-10.2-25.2-27.2s9.7-27.5,25.3-27.5
		C1140.4,234.1,1149.5,244,1149.5,261.1z M1108.3,261.4c0,12.7,6.1,20.2,16.5,20.2c10,0,16-7.6,16-20.3c0-12.3-6.2-20.1-16.2-20.1
		S1108.3,249.1,1108.3,261.4z"/>
	<path d="M1159.4,235.6h23.9c9,0,17.7,2,17.7,12.5c0,5.5-2.8,8.9-7.6,11.1v0.1c6,1.2,9.8,5.8,9.8,12.7c0,8.8-6.5,15.2-15.7,15.2
		h-28.1L1159.4,235.6L1159.4,235.6z M1192.2,249.5c0-4.3-2.3-6.6-9.8-6.6h-14.7v13.5h14.7C1189.7,256.4,1192.2,253.9,1192.2,249.5z
		 M1167.7,279.9h18.2c5.4,0,8.5-3.7,8.5-8.6c0-4.7-3-7.7-10-7.7h-16.7V279.9z"/>
</g>
<g>
	<path class="st7" d="M840.7,313.6c0.5-1.7,1.5-3,2.2-2.9c0.7,0.1,1.2,1.6,1.2,3.4c0,1.8-1,3.3-2.2,3.1
		C840.6,317,840.1,315.3,840.7,313.6z"/>
	
		<linearGradient id="SVGID_1_" gradientUnits="userSpaceOnUse" x1="128.1087" y1="968.8112" x2="128.1087" y2="962.2619" gradientTransform="matrix(-0.9879 -0.1549 0.1549 -0.9879 819.3327 1287.6387)">
		<stop  offset="0" style="stop-color:#FFFFFF"/>
		<stop  offset="0.1813" style="stop-color:#FEFFF9"/>
		<stop  offset="0.4128" style="stop-color:#FCFDEA"/>
		<stop  offset="0.6716" style="stop-color:#F8FBCF"/>
		<stop  offset="0.9485" style="stop-color:#F2F8AB"/>
		<stop  offset="0.9903" style="stop-color:#F1F7A5"/>
	</linearGradient>
	<path class="st8" d="M840.7,313.6c0.5-1.7,1.5-3,2.2-2.9c0.7,0.1,1.2,1.6,1.2,3.4c0,1.8-1,3.3-2.2,3.1
		C840.6,317,840.1,315.3,840.7,313.6z"/>
</g>
<radialGradient id="SVGID_2_" cx="1395.5336" cy="2211.5891" r="1.3498" gradientTransform="matrix(-0.5717 -0.3871 0.6633 -0.9816 173.5728 3026.8105)" gradientUnits="userSpaceOnUse">
	<stop  offset="0" style="stop-color:#A0A36D"/>
	<stop  offset="0.2214" style="stop-color:#BEC09B"/>
	<stop  offset="0.4623" style="stop-color:#DADBC6"/>
	<stop  offset="0.6794" style="stop-color:#EEEFE5"/>
	<stop  offset="0.8628" style="stop-color:#FBFBF8"/>
	<stop  offset="0.9903" style="stop-color:#FFFFFF"/>
</radialGradient>
<path class="st9" d="M841.9,315.2c0.5-0.7,1.2-1.1,1.7-0.8c0.4,0.3,0.4,1.1-0.1,1.9c-0.5,0.7-1.2,1.1-1.7,0.8
	C841.4,316.7,841.4,315.9,841.9,315.2z"/>
<path class="st10" d="M841.6,317C841.7,317,841.7,317,841.6,317c1.3,0.2,2.3-1.3,2.3-3.1c0-0.1,0-0.2,0-0.2
	C843.8,315.5,842.8,316.9,841.6,317z"/>
<radialGradient id="SVGID_3_" cx="3186.7871" cy="-1334.1945" r="1.6618" gradientTransform="matrix(0.5955 -0.5344 0.6143 0.6812 -308.6897 2927.5313)" gradientUnits="userSpaceOnUse">
	<stop  offset="0" style="stop-color:#000000"/>
	<stop  offset="8.374961e-02" style="stop-color:#202020"/>
	<stop  offset="0.2759" style="stop-color:#626262"/>
	<stop  offset="0.4584" style="stop-color:#9A9A9A"/>
	<stop  offset="0.6261" style="stop-color:#C6C6C6"/>
	<stop  offset="0.7759" style="stop-color:#E5E5E5"/>
	<stop  offset="0.9024" style="stop-color:#F8F8F8"/>
	<stop  offset="0.9903" style="stop-color:#FFFFFF"/>
</radialGradient>
<path class="st11" d="M770.4,314.8c0.6,0.6,0.6,1.5,0,2c-0.5,0.5-1.4,0.4-2-0.2c-0.6-0.6-0.6-1.5,0-2
	C769,314,769.9,314.1,770.4,314.8z"/>
<path class="st10" d="M749.6,316.7c0,0,0.1-0.1,0.1-0.1c1.1-1.6-0.4-4.1-3.1-5.3c-0.1-0.1-0.2-0.1-0.3-0.2
	C748.8,312.6,750.3,314.9,749.6,316.7z"/>
<linearGradient id="SVGID_4_" gradientUnits="userSpaceOnUse" x1="-178.517" y1="780.2649" x2="-176.3999" y2="780.2649" gradientTransform="matrix(-0.9222 0.3865 -0.3865 -0.9222 874.3413 1105.3645)">
	<stop  offset="9.708790e-03" style="stop-color:#CDD28D"/>
	<stop  offset="0.1787" style="stop-color:#DADEAB"/>
	<stop  offset="0.4183" style="stop-color:#EAECCF"/>
	<stop  offset="0.6425" style="stop-color:#F6F7EA"/>
	<stop  offset="0.843" style="stop-color:#FDFDF9"/>
	<stop  offset="1" style="stop-color:#FFFFFF"/>
</linearGradient>
<path class="st12" d="M736.4,317.1c0.5-0.2,0.9-0.3,1.1-0.2C737.3,316.8,736.9,316.9,736.4,317.1c-0.5,0.1-0.9,0.4-0.9,0.6
	C735.6,317.6,735.9,317.3,736.4,317.1z"/>
<g>
	<path class="st13" d="M13.7,71.2c0.7,3.6,5.9,3.7,6.7,0.1l6.1-26.7c1.4-6,6.6-10.5,12.9-10.8l0.3,0c8.2-0.5,15.1,6.1,14.9,14.3
		L54,72.2L141.1,56l-29.9-38.4C100.8,4.1,83.6-2.4,66.8,0.8l0,0L37.4,6.5C18,10.2,5.4,28.7,9.1,47.9L13.7,71.2z"/>
	<path class="st14" d="M72.3,10.3l-34.8,6.7C23.3,19.7,14,33.3,16.7,47.4"/>
	<path class="st15" d="M32.7,82.5c1.7,8.9-4.1,17.4-13.1,19.1S2,97.5,0.3,88.7c-1.7-8.9,4.1-17.4,13.1-19.1
		C22.3,67.8,30.9,73.6,32.7,82.5z"/>
	<path class="st16" d="M54.6,48L54,72.2l21-3.9c5.8-4.7,9.7-11.5,10.4-19.3c1.2-12.2-9.8-22.2-22-19.9l-24,4.6l0.3,0
		C47.9,33.2,54.8,39.8,54.6,48z"/>
</g>
<g>
	<path class="st15" d="M141.8,73.5l-83.2,16c-7.1,1.4-14-3.2-15.4-10.3l0,0c-1.4-7.1,3.3-13.9,10.4-15.2l83.2-16
		c7.1-1.4,14,3.2,15.4,10.3l0,0C153.5,65.3,148.9,72.2,141.8,73.5z"/>
</g>
</svg>
