<svg width="35" height="65" viewBox="0 0 35 65" fill="none" xmlns="http://www.w3.org/2000/svg">
<path d="M8.19882 3.05744H8.01952L7.9346 3.21535L3.13679 12.1367C2.84513 12.5946 2.39601 12.8612 1.90775 12.8612C1.76382 12.8612 1.54267 12.8114 1.30573 12.6953C0.625231 12.2958 0.362178 11.4622 0.685745 10.8151L5.95506 1.02445C6.24673 0.566557 6.69586 0.3 7.18413 0.3H27.9514C28.461 0.3 28.9581 0.58387 29.1717 1.00789L29.1716 1.00795L29.1758 1.01576L34.5198 10.8866L34.5197 10.8867L34.525 10.8958C34.9058 11.5437 34.6379 12.3614 33.9738 12.691L33.9571 12.6993L33.9416 12.7095C33.7988 12.804 33.5896 12.8612 33.3631 12.8612C32.8535 12.8612 32.3564 12.5773 32.1428 12.1533L32.1429 12.1532L32.1391 12.1461L27.3362 3.21535L27.2513 3.05744H27.072H8.19882Z" fill="#1A1A1A" stroke="white" stroke-width="0.6"/>
<path d="M31.8007 21.5625L31.8008 21.5626L31.8044 21.5554C32.1261 20.9167 32.9509 20.6779 33.6354 21.0177C34.2871 21.3412 34.5853 22.1654 34.3072 22.9069L29.045 32.6842C28.7533 33.1421 28.3042 33.4087 27.8159 33.4087H24.9072H24.6072V33.7087V39.0134C24.6072 39.7857 23.9995 40.3921 23.216 40.3921H19.6984H19.3984V40.6921V46.5341V46.7628L19.619 46.8234C22.6373 47.6521 25.013 51.0662 25.013 55.1291V56.9421C25.013 61.2027 21.5014 64.6969 17.1338 64.7L15.4629 64.6337C11.6197 64.1096 8.63394 60.8757 8.63394 56.9421C8.63394 56.1848 9.29374 55.5634 10.0927 55.5634C10.8762 55.5634 11.4839 56.1698 11.4839 56.9421C11.4839 59.7314 13.7877 62.0097 16.6544 62.0097H17.1955C20.0622 62.0097 22.366 59.7314 22.366 56.9421V55.1291C22.366 53.5604 21.8925 52.105 21.1262 51.0347C20.3614 49.9666 19.2823 49.2558 18.0749 49.2558C17.2915 49.2558 16.6838 48.6494 16.6838 47.8771V40.625V40.325H16.3838H11.7839C11.0004 40.325 10.3927 39.7186 10.3927 38.9463V33.6415V33.3415H10.0927H6.98102C6.47146 33.3415 5.97432 33.0577 5.76074 32.6336L5.76084 32.6336L5.75698 32.6264L0.480601 22.8227L0.480788 22.8226L0.475077 22.8129C0.094322 22.1649 0.362134 21.3473 1.02626 21.0177L1.03489 21.0134L1.04322 21.0086C1.70006 20.6282 2.52609 20.8979 2.85727 21.5554L2.85718 21.5555L2.86099 21.5625L7.66385 30.4933L7.74877 30.6512H7.92806H26.7336H26.9129L26.9978 30.4933L31.8007 21.5625ZM21.5249 37.6347H21.8249V37.3347V33.7087V33.4087H21.5249H13.3397H13.0397V33.7087V37.3347V37.6347H13.3397H21.5249Z" fill="#1A1A1A" stroke="white" stroke-width="0.6"/>
<path d="M17.8042 22.732C14.112 22.732 11.069 19.7083 11.069 16.0486C11.069 12.3889 14.112 9.36509 17.8042 9.36509C21.4964 9.36509 24.5394 12.3889 24.5394 16.0486C24.5394 19.7083 21.4964 22.732 17.8042 22.732ZM17.8042 20.0417C19.9972 20.0417 21.8247 18.2308 21.8247 16.0486C21.8247 13.8663 19.9972 12.0554 17.8042 12.0554C15.6112 12.0554 13.7837 13.8663 13.7837 16.0486C13.7837 18.2308 15.6112 20.0417 17.8042 20.0417Z" fill="#1A1A1A" stroke="white" stroke-width="0.6"/>
</svg>
