<svg width="57" height="56" viewBox="0 0 57 56" fill="none" xmlns="http://www.w3.org/2000/svg">
<path d="M53.6065 42.7375C53.6065 43.4269 54.1635 43.9863 54.8524 43.9863C55.5412 43.9863 56.0982 43.4269 56.0982 42.7375V23.8046C56.0982 23.1152 55.5412 22.5558 54.8524 22.5558C54.1635 22.5558 53.6065 23.1152 53.6065 23.8046V42.7375Z" fill="#1A1A1A" stroke="white" stroke-width="0.2"/>
<path d="M16.0343 42.7375C16.0343 43.4269 16.5913 43.9863 17.2801 43.9863C17.969 43.9863 18.5259 43.4269 18.5259 42.7375V25.0534H20.5117C21.2006 25.0534 21.7576 24.494 21.7576 23.8046C21.7576 23.1152 21.2006 22.5558 20.5117 22.5558H17.2801C16.5913 22.5558 16.0343 23.1152 16.0343 23.8046V42.7375Z" fill="#1A1A1A" stroke="white" stroke-width="0.2"/>
<path d="M2.14583 43.9908H54.8542C55.543 43.9908 56.1 43.4314 56.1 42.742C56.1 42.0526 55.543 41.4931 54.8542 41.4931H2.14583C1.45698 41.4931 0.9 42.0526 0.9 42.742C0.9 43.4314 1.45698 43.9908 2.14583 43.9908Z" fill="#1A1A1A" stroke="white" stroke-width="0.2"/>
<path d="M49.7146 20.6386L45.9593 5.62697C45.9593 5.62696 45.9593 5.62694 45.9593 5.62692C45.6302 4.31429 44.4582 3.39768 43.1089 3.39768H29.1609C27.8116 3.39768 26.6407 4.31427 26.3116 5.62697L22.5564 20.6386C22.3897 21.3084 21.7085 21.7127 21.0452 21.5461C20.3772 21.3784 19.9722 20.7001 20.14 20.0314L23.8953 5.01969C24.5017 2.59408 26.6665 0.9 29.1609 0.9H43.1089C45.6033 0.9 47.7692 2.59405 48.3756 5.01969L52.1309 20.0314L49.7146 20.6386ZM49.7146 20.6386C49.8557 21.2058 50.3642 21.5845 50.9218 21.5839M49.7146 20.6386L50.9218 21.5839M50.9218 21.5839C51.0226 21.5839 51.1247 21.5717 51.2257 21.5461C51.8938 21.3784 52.2987 20.7002 52.1309 20.0315L50.9218 21.5839Z" fill="#1A1A1A" stroke="white" stroke-width="0.2"/>
<path d="M23.8924 36.6488L23.8924 36.6487L20.4068 27.0346C20.4068 27.0346 20.4068 27.0345 20.4068 27.0345C20.1709 26.3864 20.5053 25.67 21.1513 25.4339L21.1516 25.4338L21.1516 25.4338C21.8022 25.1985 22.513 25.5328 22.7477 26.181M23.8924 36.6488L26.2333 35.7947L26.1393 35.8287L26.2333 35.7946L22.7477 26.181M23.8924 36.6488C24.5703 38.5158 26.3567 39.7702 28.3381 39.7702H43.9322C45.9136 39.7702 47.7 38.5158 48.3779 36.6482L48.3779 36.6482L51.8635 27.0346C52.0994 26.3864 51.765 25.67 51.119 25.4339V25.4339M23.8924 36.6488L51.119 25.4339M22.7477 26.181L22.6537 26.215L22.7477 26.181L22.7477 26.181ZM51.119 25.4339L51.1187 25.4338L51.119 25.4339ZM46.0369 35.7941L46.131 35.8282L46.037 35.794L46.0369 35.7941ZM49.6166 26.215L49.5226 26.181C49.5226 26.181 49.5226 26.181 49.5226 26.181L49.6166 26.215Z" fill="#1A1A1A" stroke="white" stroke-width="0.2"/>
<path d="M20.512 27.8566H51.7584C52.4472 27.8566 53.0042 27.2971 53.0042 26.6077V23.6778C53.0042 22.9884 52.4472 22.429 51.7584 22.429C51.0695 22.429 50.5126 22.9884 50.5126 23.6778V25.3589H21.7579V23.8046C21.7579 23.1152 21.2009 22.5558 20.512 22.5558C19.8232 22.5558 19.2662 23.1152 19.2662 23.8046V26.6077C19.2662 27.2971 19.8232 27.8566 20.512 27.8566Z" fill="#1A1A1A" stroke="white" stroke-width="0.2"/>
<path d="M50.5126 23.6778C50.5126 24.3672 51.0695 24.9266 51.7584 24.9266C52.4472 24.9266 53.0042 24.3672 53.0042 23.6778V20.3351C53.0042 19.6457 52.4472 19.0862 51.7584 19.0862H20.512C19.8232 19.0862 19.2662 19.6457 19.2662 20.3351V23.6778C19.2662 24.3672 19.8232 24.9266 20.512 24.9266C21.2009 24.9266 21.7579 24.3672 21.7579 23.6778V21.5839H50.5126V23.6778Z" fill="#1A1A1A" stroke="white" stroke-width="0.2"/>
<path d="M4.33799 50.4046C4.33799 52.9934 6.43807 55.1 9.02132 55.1C11.6046 55.1 13.7047 52.9934 13.7047 50.4046C13.7047 47.8158 11.6046 45.7093 9.02132 45.7093C6.43807 45.7093 4.33799 47.8158 4.33799 50.4046ZM6.82965 50.4046C6.82965 49.1924 7.81346 48.2069 9.02132 48.2069C10.2292 48.2069 11.213 49.1924 11.213 50.4046C11.213 51.6168 10.2292 52.6023 9.02132 52.6023C7.81346 52.6023 6.82965 51.6168 6.82965 50.4046Z" fill="#1A1A1A" stroke="white" stroke-width="0.2"/>
<path d="M43.296 50.4046C43.296 52.9934 45.3961 55.1 47.9793 55.1C50.5626 55.1 52.6627 52.9934 52.6627 50.4046C52.6627 47.8158 50.5626 45.7093 47.9793 45.7093C45.3961 45.7093 43.296 47.8158 43.296 50.4046ZM45.7877 50.4046C45.7877 49.1924 46.7715 48.2069 47.9793 48.2069C49.1872 48.2069 50.171 49.1924 50.171 50.4046C50.171 51.6168 49.1872 52.6023 47.9793 52.6023C46.7715 52.6023 45.7877 51.6168 45.7877 50.4046Z" fill="#1A1A1A" stroke="white" stroke-width="0.2"/>
<path d="M5.28792 43.9908H13.0995C13.7884 43.9908 14.3453 43.4313 14.3453 42.7419V19.5424C14.3453 18.853 13.7884 18.2936 13.0995 18.2936H5.28792C4.59907 18.2936 4.04209 18.853 4.04209 19.5424V42.7419C4.04209 43.4313 4.59907 43.9908 5.28792 43.9908ZM11.8537 20.7912V41.4931H6.53376V20.7912H11.8537Z" fill="#1A1A1A" stroke="white" stroke-width="0.2"/>
<path d="M6.1537 8.39856L6.1537 8.39856L1.26489 13.3013C1.26489 13.3013 1.26488 13.3013 1.26488 13.3013C1.03134 13.5355 0.9 13.8531 0.9 14.1842V19.5425C0.9 20.2319 1.45698 20.7913 2.14583 20.7913H15.1875C15.8764 20.7913 16.4334 20.2319 16.4334 19.5425V9.28144C16.4334 8.59205 15.8764 8.0326 15.1875 8.0326H7.03465C6.70363 8.0326 6.38724 8.1644 6.1537 8.39856ZM13.9417 10.5303V18.2936H3.39167V14.7012L7.5506 10.5303H13.9417Z" fill="#1A1A1A" stroke="white" stroke-width="0.2"/>
<path d="M51.7576 25.0534H54.8516C55.5405 25.0534 56.0975 24.494 56.0975 23.8046C56.0975 23.1152 55.5405 22.5558 54.8516 22.5558H51.7576C51.0688 22.5558 50.5118 23.1152 50.5118 23.8046C50.5118 24.494 51.0688 25.0534 51.7576 25.0534Z" fill="#1A1A1A" stroke="white" stroke-width="0.2"/>
</svg>
