<svg width="57" height="57" viewBox="0 0 57 57" fill="none" xmlns="http://www.w3.org/2000/svg">
<path d="M56 7.89H56.125V7.765C56.125 7.36283 55.7942 7.04481 55.4156 6.9817L55.4156 6.98159L55.4102 6.98093L5.69023 0.875932L5.68265 0.875H5.675C5.42954 0.875 5.24054 0.937742 5.05566 1.06099C4.83866 1.20566 4.78 1.47935 4.78 1.66V5.96848L1.00466 11.8777L0.985 11.9085V11.945V11.9554C0.929466 12.0361 0.929727 12.1234 0.929968 12.2042C0.929984 12.2095 0.93 12.2148 0.93 12.22V12.2203V12.2206V12.221V12.2213V12.2216V12.2219V12.2222V12.2225V12.2228V12.2232V12.2235V12.2238V12.2241V12.2244V12.2247V12.225V12.2253V12.2256V12.2259V12.2262V12.2265V12.2268V12.2271V12.2274V12.2277V12.228V12.2283V12.2285V12.2288V12.2291V12.2294V12.2297V12.23V12.2303V12.2305V12.2308V12.2311V12.2314V12.2317V12.2319V12.2322V12.2325V12.2328V12.233V12.2333V12.2336V12.2338V12.2341V12.2344V12.2346V12.2349V12.2352V12.2354V12.2357V12.236V12.2362V12.2365V12.2367V12.237V12.2372V12.2375V12.2378V12.238V12.2383V12.2385V12.2388V12.239V12.2393V12.2395V12.2398V12.24V12.2402V12.2405V12.2407V12.241V12.2412V12.2415V12.2417V12.2419V12.2422V12.2424V12.2426V12.2429V12.2431V12.2433V12.2436V12.2438V12.244V12.2443V12.2445V12.2447V12.245V12.2452V12.2454V12.2456V12.2459V12.2461V12.2463V12.2465V12.2468V12.247V12.2472V12.2474V12.2476V12.2478V12.2481V12.2483V12.2485V12.2487V12.2489V12.2491V12.2493V12.2496V12.2498V12.25V12.2502V12.2504V12.2506V12.2508V12.251V12.2512V12.2514V12.2516V12.2518V12.252V12.2523V12.2525V12.2527V12.2529V12.2531V12.2533V12.2535V12.2537V12.2539V12.2541V12.2542V12.2544V12.2546V12.2548V12.255V12.2552V12.2554V12.2556V12.2558V12.256V12.2562V12.2564V12.2566V12.2568V12.2569V12.2571V12.2573V12.2575V12.2577V12.2579V12.2581V12.2583V12.2584V12.2586V12.2588V12.259V12.2592V12.2594V12.2595V12.2597V12.2599V12.2601V12.2603V12.2604V12.2606V12.2608V12.261V12.2612V12.2613V12.2615V12.2617V12.2619V12.262V12.2622V12.2624V12.2626V12.2627V12.2629V12.2631V12.2633V12.2634V12.2636V12.2638V12.264V12.2641V12.2643V12.2645V12.2646V12.2648V12.265V12.2652V12.2653V12.2655V12.2657V12.2658V12.266V12.2662V12.2663V12.2665V12.2667V12.2668V12.267V12.2672V12.2673V12.2675V12.2677V12.2678V12.268V12.2682V12.2683V12.2685V12.2687V12.2688V12.269V12.2692V12.2693V12.2695V12.2697V12.2698V12.27V12.2701V12.2703V12.2705V12.2706V12.2708V12.271V12.2711V12.2713V12.2714V12.2716V12.2718V12.2719V12.2721V12.2723V12.2724V12.2726V12.2727V12.2729V12.2731V12.2732V12.2734V12.2735V12.2737V12.2739V12.274V12.2742V12.2744V12.2745V12.2747V12.2748V12.275V12.2752V12.2753V12.2755V12.2756V12.2758V12.276V12.2761V12.2763V12.2765V12.2766V12.2768V12.2769V12.2771V12.2773V12.2774V12.2776V12.2777V12.2779V12.2781V12.2782V12.2784V12.2786V12.2787V12.2789V12.279V12.2792V12.2794V12.2795V12.2797V12.2799V12.28V12.2802V12.2803V12.2805V12.2807V12.2808V12.281V12.2812V12.2813V12.2815V12.2817V12.2818V12.282V12.2822V12.2823V12.2825V12.2827V12.2828V12.283V12.2832V12.2833V12.2835V12.2837V12.2838V12.284V12.2842V12.2843V12.2845V12.2847V12.2848V12.285V12.2852V12.2854V12.2855V12.2857V12.2859V12.286V12.2862V12.2864V12.2866V12.2867V12.2869V12.2871V12.2873V12.2874V12.2876V12.2878V12.288V12.2881V12.2883V12.2885V12.2887V12.2888V12.289V12.2892V12.2894V12.2896V12.2897V12.2899V12.2901V12.2903V12.2905V12.2906V12.2908V12.291V12.2912V12.2914V12.2916V12.2917V12.2919V12.2921V12.2923V12.2925V12.2927V12.2929V12.2931V12.2932V12.2934V12.2936V12.2938V12.294V12.2942V12.2944V12.2946V12.2948V12.295V12.2952V12.2954V12.2956V12.2958V12.2959V12.2961V12.2963V12.2965V12.2967V12.2969V12.2971V12.2973V12.2975V12.2977V12.298V12.2982V12.2984V12.2986V12.2988V12.299V12.2992V12.2994V12.2996V12.2998V12.3V12.3002V12.3004V12.3007V12.3009V12.3011V12.3013V12.3015V12.3017V12.3019V12.3022V12.3024V12.3026V12.3028V12.303V12.3032V12.3035V12.3037V12.3039V12.3041V12.3044V12.3046V12.3048V12.305V12.3053V12.3055V12.3057V12.306V12.3062V12.3064V12.3067V12.3069V12.3071V12.3074V12.3076V12.3078V12.3081V12.3083V12.3085V12.3088V12.309V12.3093V12.3095V12.3098V12.31V12.3102V12.3105V12.3107V12.311V12.3112V12.3115V12.3117V12.312V12.3122V12.3125V12.3128V12.313V12.3133V12.3135V12.3138V12.314V12.3143V12.3146V12.3148V12.3151V12.3154V12.3156V12.3159V12.3162V12.3164V12.3167V12.317V12.3172V12.3175V12.3178V12.3181V12.3183V12.3186V12.3189V12.3192V12.3195V12.3197V12.32V12.3203V12.3206V12.3209V12.3212V12.3215V12.3217V12.322V12.3223V12.3226V12.3229V12.3232V12.3235V12.3238V12.3241V12.3244V12.3247V12.325V12.3253V12.3256V12.3259V12.3262V12.3265V12.3268V12.3272V12.3275V12.3278V12.3281V12.3284V12.3287V12.329V12.3294V12.3297V12.33V27.51C0.93 27.9122 1.26078 28.2302 1.63945 28.2933L1.63942 28.2935L1.64567 28.2942L4.30647 28.6012L1.05982 33.6575L1.04 33.6883V33.725V33.7354C1.00699 33.7834 0.993691 33.8337 0.988387 33.8836C0.978469 33.8863 0.968083 33.89 0.957848 33.8951C0.938609 33.9047 0.919524 33.9193 0.904359 33.9404C0.889801 33.9606 0.883065 33.9809 0.879695 33.9961C0.874761 34.0183 0.874922 34.0425 0.874988 34.0525L0.875 34.055V49.235C0.875 49.6372 1.20578 49.9552 1.58445 50.0183L1.58443 50.0184L1.58977 50.0191L51.3098 56.1241L51.3174 56.125H51.325H51.38C51.5659 56.125 51.7613 56.0647 51.8996 55.932C52.1082 55.7856 52.165 55.5178 52.165 55.34V40.4168L55.9401 34.5627L55.96 34.5318V34.495V34.4846C56.0155 34.4039 56.0153 34.3166 56.015 34.2358C56.015 34.2305 56.015 34.2252 56.015 34.22V34.2197V34.2194V34.219V34.2187V34.2184V34.2181V34.2178V34.2175V34.2172V34.2168V34.2165V34.2162V34.2159V34.2156V34.2153V34.215V34.2147V34.2144V34.2141V34.2138V34.2135V34.2132V34.2129V34.2126V34.2123V34.212V34.2117V34.2115V34.2112V34.2109V34.2106V34.2103V34.21V34.2097V34.2095V34.2092V34.2089V34.2086V34.2083V34.2081V34.2078V34.2075V34.2072V34.207V34.2067V34.2064V34.2062V34.2059V34.2056V34.2054V34.2051V34.2048V34.2046V34.2043V34.204V34.2038V34.2035V34.2033V34.203V34.2028V34.2025V34.2022V34.202V34.2017V34.2015V34.2012V34.201V34.2007V34.2005V34.2002V34.2V34.1998V34.1995V34.1993V34.199V34.1988V34.1985V34.1983V34.1981V34.1978V34.1976V34.1974V34.1971V34.1969V34.1967V34.1964V34.1962V34.196V34.1957V34.1955V34.1953V34.195V34.1948V34.1946V34.1944V34.1941V34.1939V34.1937V34.1935V34.1932V34.193V34.1928V34.1926V34.1924V34.1922V34.1919V34.1917V34.1915V34.1913V34.1911V34.1909V34.1907V34.1904V34.1902V34.19V34.1898V34.1896V34.1894V34.1892V34.189V34.1888V34.1886V34.1884V34.1882V34.188V34.1877V34.1875V34.1873V34.1871V34.1869V34.1867V34.1865V34.1863V34.1861V34.186V34.1858V34.1856V34.1854V34.1852V34.185V34.1848V34.1846V34.1844V34.1842V34.184V34.1838V34.1836V34.1834V34.1832V34.1831V34.1829V34.1827V34.1825V34.1823V34.1821V34.1819V34.1817V34.1816V34.1814V34.1812V34.181V34.1808V34.1806V34.1805V34.1803V34.1801V34.1799V34.1797V34.1796V34.1794V34.1792V34.179V34.1788V34.1787V34.1785V34.1783V34.1781V34.178V34.1778V34.1776V34.1774V34.1773V34.1771V34.1769V34.1767V34.1766V34.1764V34.1762V34.176V34.1759V34.1757V34.1755V34.1754V34.1752V34.175V34.1748V34.1747V34.1745V34.1743V34.1742V34.174V34.1738V34.1737V34.1735V34.1733V34.1732V34.173V34.1728V34.1727V34.1725V34.1723V34.1722V34.172V34.1718V34.1717V34.1715V34.1713V34.1712V34.171V34.1708V34.1707V34.1705V34.1703V34.1702V34.17V34.1699V34.1697V34.1695V34.1694V34.1692V34.169V34.1689V34.1687V34.1686V34.1684V34.1682V34.1681V34.1679V34.1677V34.1676V34.1674V34.1673V34.1671V34.1669V34.1668V34.1666V34.1665V34.1663V34.1661V34.166V34.1658V34.1656V34.1655V34.1653V34.1652V34.165V34.1648V34.1647V34.1645V34.1644V34.1642V34.164V34.1639V34.1637V34.1636V34.1634V34.1632V34.1631V34.1629V34.1627V34.1626V34.1624V34.1623V34.1621V34.1619V34.1618V34.1616V34.1614V34.1613V34.1611V34.161V34.1608V34.1606V34.1605V34.1603V34.1601V34.16V34.1598V34.1597V34.1595V34.1593V34.1592V34.159V34.1588V34.1587V34.1585V34.1583V34.1582V34.158V34.1578V34.1577V34.1575V34.1573V34.1572V34.157V34.1568V34.1567V34.1565V34.1563V34.1562V34.156V34.1558V34.1557V34.1555V34.1553V34.1552V34.155V34.1548V34.1546V34.1545V34.1543V34.1541V34.154V34.1538V34.1536V34.1534V34.1533V34.1531V34.1529V34.1527V34.1526V34.1524V34.1522V34.152V34.1519V34.1517V34.1515V34.1513V34.1512V34.151V34.1508V34.1506V34.1504V34.1503V34.1501V34.1499V34.1497V34.1495V34.1494V34.1492V34.149V34.1488V34.1486V34.1484V34.1483V34.1481V34.1479V34.1477V34.1475V34.1473V34.1471V34.1469V34.1468V34.1466V34.1464V34.1462V34.146V34.1458V34.1456V34.1454V34.1452V34.145V34.1448V34.1446V34.1444V34.1442V34.1441V34.1439V34.1437V34.1435V34.1433V34.1431V34.1429V34.1427V34.1425V34.1423V34.1421V34.1418V34.1416V34.1414V34.1412V34.141V34.1408V34.1406V34.1404V34.1402V34.14V34.1398V34.1396V34.1394V34.1391V34.1389V34.1387V34.1385V34.1383V34.1381V34.1378V34.1376V34.1374V34.1372V34.137V34.1368V34.1365V34.1363V34.1361V34.1359V34.1356V34.1354V34.1352V34.135V34.1347V34.1345V34.1343V34.134V34.1338V34.1336V34.1334V34.1331V34.1329V34.1326V34.1324V34.1322V34.1319V34.1317V34.1315V34.1312V34.131V34.1307V34.1305V34.1302V34.13V34.1298V34.1295V34.1293V34.129V34.1288V34.1285V34.1283V34.128V34.1278V34.1275V34.1272V34.127V34.1267V34.1265V34.1262V34.126V34.1257V34.1254V34.1252V34.1249V34.1246V34.1244V34.1241V34.1238V34.1236V34.1233V34.123V34.1228V34.1225V34.1222V34.1219V34.1217V34.1214V34.1211V34.1208V34.1205V34.1203V34.12V34.1197V34.1194V34.1191V34.1188V34.1185V34.1183V34.118V34.1177V34.1174V34.1171V34.1168V34.1165V34.1162V34.1159V34.1156V34.1153V34.115V34.1147V34.1144V34.1141V34.1138V34.1135V34.1132V34.1129V34.1125V34.1122V34.1119V34.1116V34.1113V34.111V34.1106V34.1103V34.11V29.545C56.015 29.1428 55.6842 28.8248 55.3055 28.7617L55.3056 28.7616L55.2995 28.7608L52.11 28.3887V18.6368L55.8851 12.7827L55.905 12.7518V12.715V12.7046C55.9605 12.6239 55.9603 12.5366 55.96 12.4558C55.96 12.4505 55.96 12.4452 55.96 12.44V12.4397V12.4394V12.439V12.4387V12.4384V12.4381V12.4378V12.4375V12.4372V12.4368V12.4365V12.4362V12.4359V12.4356V12.4353V12.435V12.4347V12.4344V12.4341V12.4338V12.4335V12.4332V12.4329V12.4326V12.4323V12.432V12.4317V12.4315V12.4312V12.4309V12.4306V12.4303V12.43V12.4297V12.4295V12.4292V12.4289V12.4286V12.4283V12.4281V12.4278V12.4275V12.4272V12.427V12.4267V12.4264V12.4262V12.4259V12.4256V12.4254V12.4251V12.4248V12.4246V12.4243V12.424V12.4238V12.4235V12.4233V12.423V12.4228V12.4225V12.4222V12.422V12.4217V12.4215V12.4212V12.421V12.4207V12.4205V12.4202V12.42V12.4198V12.4195V12.4193V12.419V12.4188V12.4185V12.4183V12.4181V12.4178V12.4176V12.4174V12.4171V12.4169V12.4167V12.4164V12.4162V12.416V12.4157V12.4155V12.4153V12.415V12.4148V12.4146V12.4144V12.4141V12.4139V12.4137V12.4135V12.4132V12.413V12.4128V12.4126V12.4124V12.4122V12.4119V12.4117V12.4115V12.4113V12.4111V12.4109V12.4107V12.4104V12.4102V12.41V12.4098V12.4096V12.4094V12.4092V12.409V12.4088V12.4086V12.4084V12.4082V12.408V12.4077V12.4075V12.4073V12.4071V12.4069V12.4067V12.4065V12.4063V12.4061V12.4059V12.4058V12.4056V12.4054V12.4052V12.405V12.4048V12.4046V12.4044V12.4042V12.404V12.4038V12.4036V12.4034V12.4032V12.4031V12.4029V12.4027V12.4025V12.4023V12.4021V12.4019V12.4017V12.4016V12.4014V12.4012V12.401V12.4008V12.4006V12.4005V12.4003V12.4001V12.3999V12.3997V12.3996V12.3994V12.3992V12.399V12.3988V12.3987V12.3985V12.3983V12.3981V12.398V12.3978V12.3976V12.3974V12.3973V12.3971V12.3969V12.3967V12.3966V12.3964V12.3962V12.396V12.3959V12.3957V12.3955V12.3954V12.3952V12.395V12.3948V12.3947V12.3945V12.3943V12.3942V12.394V12.3938V12.3937V12.3935V12.3933V12.3932V12.393V12.3928V12.3927V12.3925V12.3923V12.3922V12.392V12.3918V12.3917V12.3915V12.3913V12.3912V12.391V12.3908V12.3907V12.3905V12.3903V12.3902V12.39V12.3899V12.3897V12.3895V12.3894V12.3892V12.389V12.3889V12.3887V12.3886V12.3884V12.3882V12.3881V12.3879V12.3877V12.3876V12.3874V12.3873V12.3871V12.3869V12.3868V12.3866V12.3865V12.3863V12.3861V12.386V12.3858V12.3856V12.3855V12.3853V12.3852V12.385V12.3848V12.3847V12.3845V12.3844V12.3842V12.384V12.3839V12.3837V12.3835V12.3834V12.3832V12.3831V12.3829V12.3827V12.3826V12.3824V12.3823V12.3821V12.3819V12.3818V12.3816V12.3814V12.3813V12.3811V12.381V12.3808V12.3806V12.3805V12.3803V12.3801V12.38V12.3798V12.3797V12.3795V12.3793V12.3792V12.379V12.3788V12.3787V12.3785V12.3783V12.3782V12.378V12.3778V12.3777V12.3775V12.3773V12.3772V12.377V12.3768V12.3767V12.3765V12.3763V12.3762V12.376V12.3758V12.3757V12.3755V12.3753V12.3752V12.375V12.3748V12.3746V12.3745V12.3743V12.3741V12.374V12.3738V12.3736V12.3734V12.3733V12.3731V12.3729V12.3727V12.3726V12.3724V12.3722V12.372V12.3719V12.3717V12.3715V12.3713V12.3712V12.371V12.3708V12.3706V12.3704V12.3703V12.3701V12.3699V12.3697V12.3695V12.3694V12.3692V12.369V12.3688V12.3686V12.3684V12.3683V12.3681V12.3679V12.3677V12.3675V12.3673V12.3671V12.3669V12.3668V12.3666V12.3664V12.3662V12.366V12.3658V12.3656V12.3654V12.3652V12.365V12.3648V12.3646V12.3644V12.3642V12.3641V12.3639V12.3637V12.3635V12.3633V12.3631V12.3629V12.3627V12.3625V12.3623V12.3621V12.3618V12.3616V12.3614V12.3612V12.361V12.3608V12.3606V12.3604V12.3602V12.36V12.3598V12.3596V12.3594V12.3591V12.3589V12.3587V12.3585V12.3583V12.3581V12.3578V12.3576V12.3574V12.3572V12.357V12.3568V12.3565V12.3563V12.3561V12.3559V12.3556V12.3554V12.3552V12.355V12.3547V12.3545V12.3543V12.354V12.3538V12.3536V12.3533V12.3531V12.3529V12.3526V12.3524V12.3522V12.3519V12.3517V12.3515V12.3512V12.351V12.3507V12.3505V12.3502V12.35V12.3498V12.3495V12.3493V12.349V12.3488V12.3485V12.3483V12.348V12.3478V12.3475V12.3472V12.347V12.3467V12.3465V12.3462V12.346V12.3457V12.3454V12.3452V12.3449V12.3446V12.3444V12.3441V12.3438V12.3436V12.3433V12.343V12.3428V12.3425V12.3422V12.3419V12.3417V12.3414V12.3411V12.3408V12.3405V12.3403V12.34V12.3397V12.3394V12.3391V12.3388V12.3385V12.3383V12.338V12.3377V12.3374V12.3371V12.3368V12.3365V12.3362V12.3359V12.3356V12.3353V12.335V12.3347V12.3344V12.3341V12.3338V12.3335V12.3332V12.3329V12.3325V12.3322V12.3319V12.3316V12.3313V12.331V12.3306V12.3303V12.33V7.89H56ZM54.5 8.4806V11.4189L15.3151 6.65092L15.315 6.6509L6.295 5.56416V2.56453L54.5 8.4806ZM2.445 13.1861L41.6299 17.9541L41.63 17.9541L50.65 19.0408V29.105V32.6487L2.445 26.7394V13.1861ZM29.4502 36.6809L29.4501 36.6809L3.02686 33.4599L5.95809 28.8537L51.055 34.3948C51.1026 34.4266 51.1555 34.4399 51.1945 34.4464C51.2427 34.4545 51.2895 34.455 51.3176 34.455L53.9165 34.7607L50.9873 39.3114L29.4502 36.6809ZM2.5 48.5194V34.9661L41.6849 39.7341L41.685 39.7341L50.705 40.8208V54.4355L2.5 48.5194ZM27.4948 9.64908L27.4949 9.64909L53.9742 12.8703L51.0414 17.5313L29.5053 14.9009L29.5052 14.9009L3.02665 11.6252L5.95812 7.01864L27.4948 9.64908ZM52.275 29.9624L54.555 30.2598V33.1976L52.275 32.9002V29.9624Z" fill="#1A1A1A" stroke="#1A1A1A" stroke-width="0.25"/>
</svg>
